<?xml version="1.0" encoding="UTF-8"?>
<svg xmlns="http://www.w3.org/2000/svg" xmlns:xlink="http://www.w3.org/1999/xlink" width="28px" height="28px" viewBox="0 0 28 28" version="1.1">
<g id="surface1">
<path  d="M 21.15625 2.800781 C 23.3125 2.800781 25.074219 4.488281 25.195312 6.613281 L 25.199219 6.84375 L 25.199219 15.300781 C 25.199219 16.046875 24.933594 16.761719 24.457031 17.320312 L 24.289062 17.503906 L 17.503906 24.289062 C 16.976562 24.8125 16.285156 25.132812 15.546875 25.191406 L 15.300781 25.199219 L 6.84375 25.199219 C 4.6875 25.199219 2.925781 23.511719 2.804688 21.386719 L 2.800781 21.15625 L 2.800781 6.84375 C 2.800781 4.6875 4.488281 2.925781 6.613281 2.804688 L 6.84375 2.800781 Z M 21.042969 4.199219 L 6.957031 4.199219 C 5.496094 4.199219 4.304688 5.332031 4.207031 6.765625 L 4.199219 6.957031 L 4.199219 21.042969 C 4.199219 22.503906 5.332031 23.695312 6.765625 23.792969 L 6.957031 23.800781 L 15.398438 23.800781 L 15.398438 19.472656 C 13.007812 19.917969 10.445312 19.207031 8.601562 17.351562 C 8.332031 17.074219 8.332031 16.632812 8.605469 16.359375 C 8.882812 16.089844 9.324219 16.089844 9.597656 16.363281 C 11.179688 17.960938 13.414062 18.515625 15.449219 18.027344 C 15.457031 17.945312 15.46875 17.875 15.476562 17.8125 C 16.015625 16.367188 17.371094 15.496094 18.980469 15.40625 L 19.207031 15.398438 L 23.800781 15.398438 L 23.800781 6.957031 C 23.800781 5.496094 22.667969 4.304688 21.234375 4.207031 Z M 23.21875 16.800781 L 19.351562 16.800781 C 18 16.800781 16.894531 17.847656 16.804688 19.179688 L 16.800781 19.351562 L 16.800781 23.21875 L 16.921875 23.109375 L 23.109375 16.921875 C 23.148438 16.882812 23.183594 16.84375 23.21875 16.800781 Z M 9.800781 9.800781 C 10.574219 9.800781 11.199219 10.425781 11.199219 11.199219 C 11.199219 11.972656 10.574219 12.601562 9.800781 12.601562 C 9.027344 12.601562 8.398438 11.972656 8.398438 11.199219 C 8.398438 10.425781 9.027344 9.800781 9.800781 9.800781 Z M 18.199219 9.800781 C 18.972656 9.800781 19.601562 10.425781 19.601562 11.199219 C 19.601562 11.972656 18.972656 12.601562 18.199219 12.601562 C 17.425781 12.601562 16.800781 11.972656 16.800781 11.199219 C 16.800781 10.425781 17.425781 9.800781 18.199219 9.800781 Z M 18.199219 9.800781 "/>
</g>
</svg>
