<?xml version="1.0" encoding="UTF-8"?>
<svg xmlns="http://www.w3.org/2000/svg" xmlns:xlink="http://www.w3.org/1999/xlink" width="36px" height="36px" viewBox="0 0 36 36" version="1.1">
<g id="surface1">
<path  d="M 27.199219 3.601562 C 29.972656 3.601562 32.238281 5.769531 32.394531 8.503906 L 32.398438 8.800781 L 32.398438 19.671875 C 32.398438 20.632812 32.058594 21.550781 31.445312 22.269531 L 31.230469 22.503906 L 22.503906 31.230469 C 21.828125 31.902344 20.9375 32.3125 19.988281 32.390625 L 19.671875 32.398438 L 8.800781 32.398438 C 6.027344 32.398438 3.761719 30.230469 3.605469 27.496094 L 3.601562 27.199219 L 3.601562 8.800781 C 3.601562 6.027344 5.769531 3.761719 8.503906 3.605469 L 8.800781 3.601562 Z M 27.054688 5.398438 L 8.945312 5.398438 C 7.066406 5.398438 5.535156 6.855469 5.410156 8.699219 L 5.398438 8.945312 L 5.398438 27.054688 C 5.398438 28.933594 6.855469 30.464844 8.699219 30.589844 L 8.945312 30.601562 L 19.796875 30.601562 L 19.796875 25.035156 C 16.722656 25.609375 13.429688 24.695312 11.058594 22.308594 C 10.710938 21.953125 10.710938 21.386719 11.0625 21.035156 C 11.421875 20.6875 11.988281 20.6875 12.339844 21.039062 C 14.375 23.09375 17.246094 23.804688 19.863281 23.179688 C 19.875 23.074219 19.886719 22.980469 19.898438 22.902344 C 20.589844 21.042969 22.335938 19.921875 24.402344 19.808594 L 24.695312 19.796875 L 30.601562 19.796875 L 30.601562 8.945312 C 30.601562 7.066406 29.144531 5.535156 27.300781 5.410156 Z M 29.851562 21.601562 L 24.878906 21.601562 C 23.144531 21.601562 21.722656 22.945312 21.605469 24.660156 L 21.601562 24.878906 L 21.601562 29.851562 L 21.757812 29.710938 L 29.710938 21.757812 C 29.761719 21.707031 29.808594 21.65625 29.851562 21.601562 Z M 12.601562 12.601562 C 13.59375 12.601562 14.398438 13.40625 14.398438 14.398438 C 14.398438 15.394531 13.59375 16.203125 12.601562 16.203125 C 11.605469 16.203125 10.796875 15.394531 10.796875 14.398438 C 10.796875 13.40625 11.605469 12.601562 12.601562 12.601562 Z M 23.398438 12.601562 C 24.394531 12.601562 25.203125 13.40625 25.203125 14.398438 C 25.203125 15.394531 24.394531 16.203125 23.398438 16.203125 C 22.40625 16.203125 21.601562 15.394531 21.601562 14.398438 C 21.601562 13.40625 22.40625 12.601562 23.398438 12.601562 Z M 23.398438 12.601562 "/>
</g>
</svg>
